<svg width="18" height="18" viewBox="0 0 18 18" fill="none" xmlns="http://www.w3.org/2000/svg">
<g clip-path="url(#clip0)">
<path d="M17.8901 8.73487L12.2651 3.10987C12.1186 2.96338 11.8813 2.96338 11.7349 3.10987C11.5884 3.25637 11.5884 3.49367 11.7349 3.64013L16.7198 8.62501H0.375012C0.16773 8.62501 0 8.79274 0 9.00002C0 9.2073 0.16773 9.37503 0.375012 9.37503H16.7198L11.7349 14.3599C11.5884 14.5064 11.5884 14.7437 11.7349 14.8901C11.8081 14.9634 11.9041 15 12 15C12.096 15 12.1919 14.9634 12.2652 14.8901L17.8902 9.26513C18.0366 9.11867 18.0366 8.88137 17.8901 8.73487Z" fill="white"/>
</g>
<defs>
<clipPath id="clip0">
<rect width="18" height="18" fill="white"/>
</clipPath>
</defs>
</svg>
