<svg width="24" height="24" viewBox="0 0 24 24" fill="none" xmlns="http://www.w3.org/2000/svg">
<path d="M10.5825 11.3528C10.9146 11.1919 11.1656 11.0128 11.3376 10.8192C11.6436 10.4706 11.7946 10.0084 11.7946 9.43542C11.7946 8.87785 11.6436 8.40116 11.3416 8.00152C10.8376 7.35053 9.98449 7.01733 8.77839 7H4V16.3921H8.45537C8.95741 16.3921 9.42245 16.3507 9.85248 16.266C10.2825 16.1803 10.6545 16.0233 10.9696 15.7941C11.2496 15.5948 11.4836 15.3473 11.6696 15.0555C11.9637 14.6144 12.1107 14.1146 12.1107 13.558C12.1107 13.0187 11.9817 12.5594 11.7256 12.1819C11.4666 11.8044 11.0866 11.528 10.5825 11.3528ZM5.97116 8.63132H8.12334C8.59638 8.63132 8.98641 8.68043 9.29244 8.77769C9.64647 8.91925 9.82348 9.20719 9.82348 9.64632C9.82348 10.0402 9.68847 10.3156 9.42145 10.4706C9.15243 10.6257 8.8034 10.7037 8.37536 10.7037H5.97116V8.63132ZM9.37444 14.5971C9.13642 14.7078 8.8014 14.7627 8.37236 14.7627H5.97116V12.258H8.40536C8.8294 12.2609 9.15943 12.3148 9.39545 12.4159C9.81548 12.5989 10.0245 12.934 10.0245 13.4242C10.0245 14.002 9.80848 14.391 9.37444 14.5971Z" fill="#009E6C"/>
<path d="M18.4623 7.43848H14.2249V8.60762H18.4623V7.43848Z" fill="#009E6C"/>
<path d="M19.9343 12.0525C19.8463 11.5084 19.6523 11.0298 19.3502 10.6167C19.0192 10.1487 18.5992 9.80584 18.0881 9.58917C17.5791 9.37153 17.0061 9.26272 16.368 9.26368C15.2969 9.26368 14.4268 9.58628 13.7538 10.2267C13.0827 10.869 12.7467 11.7925 12.7467 12.9962C12.7467 14.2799 13.1177 15.2073 13.8638 15.7764C14.6069 16.3465 15.4649 16.6306 16.439 16.6306C17.6181 16.6306 18.5352 16.2926 19.1902 15.6185C19.6093 15.1928 19.8463 14.7739 19.8983 14.3627H17.9461C17.8331 14.5659 17.7021 14.7248 17.5521 14.8404C17.2801 15.0522 16.926 15.1582 16.492 15.1582C16.079 15.1582 15.7289 15.0705 15.4369 14.8962C14.9549 14.617 14.7029 14.1278 14.6709 13.4315H19.9983C20.0063 12.8316 19.9863 12.3703 19.9343 12.0525ZM14.7189 12.2326C14.7889 11.7809 14.9589 11.4227 15.2289 11.1579C15.4989 10.894 15.881 10.7611 16.37 10.7602C16.821 10.7602 17.1981 10.8844 17.5051 11.1338C17.8081 11.3852 17.9791 11.7501 18.0141 12.2326H14.7189Z" fill="#009E6C"/>
</svg>
