<svg width="24" height="24" viewBox="0 0 24 24" fill="none" xmlns="http://www.w3.org/2000/svg">
<path d="M15 4H9C6.239 4 4 6.15595 4 8.81454V14.592C4 17.2506 6.239 19.4065 9 19.4065H15C17.761 19.4065 20 17.2506 20 14.592V8.81454C20 6.15595 17.761 4 15 4ZM18.5 14.592C18.5 16.4504 16.93 17.9622 15 17.9622H9C7.07 17.9622 5.5 16.4504 5.5 14.592V8.81454C5.5 6.95613 7.07 5.44436 9 5.44436H15C16.93 5.44436 18.5 6.95613 18.5 8.81454V14.592Z" fill="#009E6C"/>
<path d="M12 7.85156C9.791 7.85156 8 9.57617 8 11.7033C8 13.8304 9.791 15.555 12 15.555C14.209 15.555 16 13.8304 16 11.7033C16 9.57617 14.209 7.85156 12 7.85156ZM12 14.1106C10.622 14.1106 9.5 13.0302 9.5 11.7033C9.5 10.3754 10.622 9.29595 12 9.29595C13.378 9.29595 14.5 10.3754 14.5 11.7033C14.5 13.0302 13.378 14.1106 12 14.1106Z" fill="#009E6C"/>
<path d="M16.3 8.07627C16.5944 8.07627 16.833 7.84649 16.833 7.56304C16.833 7.27959 16.5944 7.0498 16.3 7.0498C16.0056 7.0498 15.767 7.27959 15.767 7.56304C15.767 7.84649 16.0056 8.07627 16.3 8.07627Z" fill="#009E6C"/>
</svg>
