<svg width="24" height="24" viewBox="0 0 24 24" fill="none" xmlns="http://www.w3.org/2000/svg">
<path d="M7.57798 8.99902H4V19.9991H7.57798V8.99902Z" fill="#009E6C"/>
<path d="M17.324 9.12802C17.286 9.11602 17.25 9.10302 17.21 9.09202C17.162 9.08102 17.114 9.07202 17.065 9.06402C16.875 9.02602 16.667 8.99902 16.423 8.99902C14.337 8.99902 13.014 10.516 12.578 11.102V8.99902H9V19.9991H12.578V13.9991C12.578 13.9991 15.282 10.233 16.423 12.9991C16.423 15.4681 16.423 19.9991 16.423 19.9991H20V12.5761C20 10.914 18.861 9.52903 17.324 9.12802Z" fill="#009E6C"/>
<path d="M5.75 7.49993C6.7165 7.49993 7.5 6.71645 7.5 5.74997C7.5 4.78349 6.7165 4 5.75 4C4.7835 4 4 4.78349 4 5.74997C4 6.71645 4.7835 7.49993 5.75 7.49993Z" fill="#009E6C"/>
</svg>
