<svg width="24" height="24" viewBox="0 0 24 24" fill="none" xmlns="http://www.w3.org/2000/svg">
<path d="M14.9133 19.4442C14.9267 19.4402 14.9394 19.4349 14.9527 19.4302C23.104 16.1954 20.8491 4 12.0078 4C7.57082 4 4 7.61276 4 11.9987C4 17.5492 9.62817 21.5099 14.9133 19.4442ZM7.52411 17.3705C8.09267 16.416 9.93247 13.7231 13.0729 12.7939C13.7295 14.4663 14.19 16.4173 14.2353 18.6297C11.8557 19.4289 9.34589 18.891 7.52411 17.3705ZM15.2196 18.2124C15.1322 16.0867 14.6978 14.2017 14.0785 12.5686C15.4679 12.352 17.0761 12.4966 18.8999 13.2265C18.5122 15.4002 17.1208 17.2272 15.2196 18.2124ZM19.0047 12.1927C16.996 11.4388 15.2256 11.3448 13.6935 11.6368C13.4566 11.1035 13.2077 10.5909 12.9441 10.119C15.295 9.18117 16.6844 8.03802 17.3063 7.43278C18.4041 8.70192 19.0561 10.345 19.0047 12.1927ZM16.5956 6.7209C16.0298 7.25881 14.6971 8.34531 12.4182 9.23383C11.3011 7.46878 10.1066 6.22364 9.3499 5.52642C11.7709 4.53058 14.563 4.95585 16.5956 6.7209ZM8.39296 6.01501C8.96419 6.51693 10.2181 7.72207 11.4279 9.58577C9.7663 10.1204 7.68293 10.513 5.14912 10.5683C5.55218 8.63926 6.75603 7.00485 8.39296 6.01501ZM5.02233 11.5721C7.85844 11.5261 10.154 11.0789 11.9685 10.4736C12.2194 10.9129 12.4576 11.3915 12.6865 11.8887C9.52674 12.8939 7.55214 15.4888 6.79607 16.6606C5.57621 15.3009 4.90355 13.5265 5.02233 11.5721Z" fill="#9F999E"/>
</svg>
