<svg width="24" height="24" viewBox="0 0 24 24" fill="none" xmlns="http://www.w3.org/2000/svg">
<path d="M18.7233 7.50434L20 6.27015V6H15.5773L12.4253 13.9279L8.83933 6H4.202V6.27015L5.69333 8.08438C5.83867 8.21844 5.91467 8.41448 5.89533 8.61187V15.7415C5.94133 15.9981 5.85867 16.2622 5.68 16.4488L4 18.5063V18.7731H8.76333V18.5029L7.08333 16.4488C6.90133 16.2616 6.81533 16.0022 6.852 15.7415V9.57457L11.0333 18.7764H11.5193L15.1147 9.57457V16.9049C15.1147 17.0983 15.1147 17.138 14.9893 17.2647L13.696 18.5292V18.8H19.9707V18.5299L18.724 17.2963C18.6147 17.2128 18.558 17.0727 18.5813 16.9366V7.86408C18.558 7.72733 18.614 7.5872 18.7233 7.50434V7.50434Z" fill="#9F999E"/>
</svg>
