<svg width="64" height="16" viewBox="0 0 64 16" fill="none" xmlns="http://www.w3.org/2000/svg">
<path d="M14.8536 16H10.0855L4.96783 7.34545L3.71964 4.92121H3.69467L3.79453 7.92727V16H0V0H4.76812L9.88574 8.65455L11.1339 11.0788H11.1589L11.059 8.07273V0H14.8536V16Z" fill="#F34573"/>
<path d="M27.94 12.3879H22.2482L21.0998 16H16.7811L22.5727 0H27.7153L33.482 16H29.0634L27.94 12.3879ZM27.0413 9.55152L25.843 5.72121L25.119 3.2H25.0691L24.3951 5.69697L23.1469 9.55152H27.0413Z" fill="#F34573"/>
<path d="M42.9622 0C45.0093 0 46.582 0.460606 47.6804 1.38182C48.7789 2.28687 49.3281 3.59596 49.3281 5.30909C49.3281 6.94141 48.7789 8.2101 47.6804 9.11515C46.582 10.004 45.0093 10.4485 42.9622 10.4485H39.692V16H35.3982V0H42.9622ZM42.2882 7.39394C43.2202 7.39394 43.9026 7.22424 44.3353 6.88485C44.7846 6.52929 45.0093 5.98788 45.0093 5.26061C45.0093 4.54949 44.7846 4.02424 44.3353 3.68485C43.9026 3.32929 43.2202 3.15151 42.2882 3.15151H39.692V7.39394H42.2882Z" fill="#F34573"/>
<path d="M64 4.72311H60.8828V7.87692H59.0386V4.72311H55.9052V3.13858H59.0386V0H60.8828V3.13858H64V4.72311Z" fill="#009E6C"/>
</svg>
